<?xml version="1.0" encoding="UTF-8" standalone="no"?>
<!-- Created with Inkscape (http://www.inkscape.org/) -->

<svg
   width="105"
   height="105"
   viewBox="0 0 27.781232 27.781231"
   version="1.1"
   id="svg1"
   sodipodi:docname="favicon.svg"
   inkscape:version="1.3.2 (091e20ef0f, 2023-11-25)"
   xmlns:inkscape="http://www.inkscape.org/namespaces/inkscape"
   xmlns:sodipodi="http://sodipodi.sourceforge.net/DTD/sodipodi-0.dtd"
   xmlns:xlink="http://www.w3.org/1999/xlink"
   xmlns="http://www.w3.org/2000/svg"
   xmlns:svg="http://www.w3.org/2000/svg">
  <sodipodi:namedview
     id="namedview1"
     pagecolor="#505050"
     bordercolor="#ffffff"
     borderopacity="1"
     inkscape:showpageshadow="0"
     inkscape:pageopacity="0"
     inkscape:pagecheckerboard="1"
     inkscape:deskcolor="#505050"
     inkscape:zoom="4"
     inkscape:cx="56.25"
     inkscape:cy="51.75"
     inkscape:window-width="1920"
     inkscape:window-height="1011"
     inkscape:window-x="0"
     inkscape:window-y="0"
     inkscape:window-maximized="1"
     inkscape:current-layer="layer1" />
  <defs
     id="defs1">
    <pattern
       inkscape:collect="always"
       xlink:href="#pattern4"
       preserveAspectRatio="xMidYMid"
       id="pattern5"
       patternTransform="matrix(-0.00258819,-0.00965927,0.00965927,-0.00258819,0,0)"
       x="0"
       y="0" />
    <pattern
       patternUnits="userSpaceOnUse"
       width="349.7577"
       height="27.6099"
       patternTransform="scale(0.2)"
       preserveAspectRatio="xMidYMid"
       id="pattern4"
       style="fill:#012169"
       inkscape:label="Lines shading big"
       inkscape:collect="always"
       inkscape:isstock="true">
      <path
         id="path3"
         style="stroke-width:0.487199;stroke-linecap:square;paint-order:markers fill stroke;stop-color:#000000"
         d="m 349.5257,0 h 0.232 v 27.6099 h -0.232 z m -18.396,0 h 1.0542 v 27.6099 h -1.0542 z m -18.3961,0 h 1.8765 v 27.6099 h -1.8765 z m -18.3961,0 h 2.6988 v 27.6099 h -2.6988 z m -18.3961,0 h 3.5211 v 27.6099 h -3.5211 z m -18.3961,0 h 4.3434 v 27.6099 h -4.3434 z m -18.3961,0 h 5.1658 v 27.6099 h -5.1658 z m -18.3961,0 h 5.9881 v 27.6099 h -5.9881 z M 202.357,0 h 6.8104 v 27.6099 h -6.8104 z m -18.3961,0 h 7.6327 v 27.6099 h -7.6327 z m -18.3961,0 h 8.455 v 27.6099 h -8.455 z m -18.3961,0 h 9.2773 v 27.6099 h -9.2773 z m -18.396,0 h 10.0995 v 27.6099 h -10.0995 z m -18.3961,0 h 10.9218 V 27.6099 H 110.3766 Z M 91.9805,0 h 11.7441 V 27.6099 H 91.9805 Z M 73.5844,0 H 86.1509 V 27.6099 H 73.5844 Z M 55.1883,0 H 68.5771 V 27.6099 H 55.1883 Z M 36.7922,0 H 51.0033 V 27.6099 H 36.7922 Z M 18.3961,0 H 33.4295 V 27.6099 H 18.3961 Z M 0,0 H 15.8557 V 27.6099 H 0 Z"
         sodipodi:nodetypes="cccccccccc" />
    </pattern>
    <pattern
       inkscape:collect="always"
       xlink:href="#shading5"
       preserveAspectRatio="xMidYMid"
       id="pattern2"
       patternTransform="matrix(0.00258819,-0.00965926,0.00965926,0.00258819,0,0)"
       x="0"
       y="0" />
    <pattern
       patternUnits="userSpaceOnUse"
       width="349.7577"
       height="27.6099"
       patternTransform="scale(0.2)"
       preserveAspectRatio="xMidYMid"
       id="shading5"
       style="fill:#ffcd00"
       inkscape:label="Lines shading big"
       inkscape:collect="always"
       inkscape:isstock="true">
      <path
         id="path37"
         style="stroke-width:0.487199;stroke-linecap:square;paint-order:markers fill stroke;stop-color:#000000"
         d="m 349.5257,0 h 0.232 v 27.6099 h -0.232 z m -18.396,0 h 1.0542 v 27.6099 h -1.0542 z m -18.3961,0 h 1.8765 v 27.6099 h -1.8765 z m -18.3961,0 h 2.6988 v 27.6099 h -2.6988 z m -18.3961,0 h 3.5211 v 27.6099 h -3.5211 z m -18.3961,0 h 4.3434 v 27.6099 h -4.3434 z m -18.3961,0 h 5.1658 v 27.6099 h -5.1658 z m -18.3961,0 h 5.9881 v 27.6099 h -5.9881 z M 202.357,0 h 6.8104 v 27.6099 h -6.8104 z m -18.3961,0 h 7.6327 v 27.6099 h -7.6327 z m -18.3961,0 h 8.455 v 27.6099 h -8.455 z m -18.3961,0 h 9.2773 v 27.6099 h -9.2773 z m -18.396,0 h 10.0995 v 27.6099 h -10.0995 z m -18.3961,0 h 10.9218 V 27.6099 H 110.3766 Z M 91.9805,0 h 11.7441 V 27.6099 H 91.9805 Z M 73.5844,0 H 86.1509 V 27.6099 H 73.5844 Z M 55.1883,0 H 68.5771 V 27.6099 H 55.1883 Z M 36.7922,0 H 51.0033 V 27.6099 H 36.7922 Z M 18.3961,0 H 33.4295 V 27.6099 H 18.3961 Z M 0,0 H 15.8557 V 27.6099 H 0 Z"
         sodipodi:nodetypes="cccccccccc" />
    </pattern>
    <filter
       style="color-interpolation-filters:sRGB"
       id="filter138"
       x="-0.051615379"
       y="-0.053913924"
       width="1.120124"
       height="1.1078286">
      <feFlood
         result="flood"
         in="SourceGraphic"
         flood-opacity="0.501961"
         flood-color="rgb(1,33,105)"
         id="feFlood137" />
      <feGaussianBlur
         result="blur"
         in="SourceGraphic"
         stdDeviation="0.500000"
         id="feGaussianBlur137" />
      <feOffset
         result="offset"
         in="blur"
         dx="0.400000"
         dy="0.000000"
         id="feOffset137" />
      <feComposite
         result="comp1"
         operator="in"
         in="flood"
         in2="offset"
         id="feComposite137" />
      <feComposite
         result="comp2"
         operator="over"
         in="SourceGraphic"
         in2="comp1"
         id="feComposite138" />
    </filter>
    <pattern
       inkscape:collect="always"
       xlink:href="#pattern4-5"
       preserveAspectRatio="xMidYMid"
       id="pattern5-7"
       patternTransform="matrix(0.00965928,-0.0025882,0.0025882,0.00965928,0,0)"
       x="0"
       y="0" />
    <pattern
       patternUnits="userSpaceOnUse"
       width="349.7577"
       height="27.6099"
       patternTransform="scale(0.2)"
       preserveAspectRatio="xMidYMid"
       id="pattern4-5"
       style="fill:#ffcd00"
       inkscape:label="Lines shading big"
       inkscape:collect="always"
       inkscape:isstock="true">
      <path
         id="path3-3"
         style="stroke-width:0.487199;stroke-linecap:square;paint-order:markers fill stroke;stop-color:#000000"
         d="m 349.5257,0 h 0.232 v 27.6099 h -0.232 z m -18.396,0 h 1.0542 v 27.6099 h -1.0542 z m -18.3961,0 h 1.8765 v 27.6099 h -1.8765 z m -18.3961,0 h 2.6988 v 27.6099 h -2.6988 z m -18.3961,0 h 3.5211 v 27.6099 h -3.5211 z m -18.3961,0 h 4.3434 v 27.6099 h -4.3434 z m -18.3961,0 h 5.1658 v 27.6099 h -5.1658 z m -18.3961,0 h 5.9881 v 27.6099 h -5.9881 z M 202.357,0 h 6.8104 v 27.6099 h -6.8104 z m -18.3961,0 h 7.6327 v 27.6099 h -7.6327 z m -18.3961,0 h 8.455 v 27.6099 h -8.455 z m -18.3961,0 h 9.2773 v 27.6099 h -9.2773 z m -18.396,0 h 10.0995 v 27.6099 h -10.0995 z m -18.3961,0 h 10.9218 V 27.6099 H 110.3766 Z M 91.9805,0 h 11.7441 V 27.6099 H 91.9805 Z M 73.5844,0 H 86.1509 V 27.6099 H 73.5844 Z M 55.1883,0 H 68.5771 V 27.6099 H 55.1883 Z M 36.7922,0 H 51.0033 V 27.6099 H 36.7922 Z M 18.3961,0 H 33.4295 V 27.6099 H 18.3961 Z M 0,0 H 15.8557 V 27.6099 H 0 Z"
         sodipodi:nodetypes="cccccccccc" />
    </pattern>
    <pattern
       inkscape:collect="always"
       xlink:href="#shading5-6"
       preserveAspectRatio="xMidYMid"
       id="pattern2-5"
       patternTransform="matrix(-0.00965926,-0.00258819,0.00258819,-0.00965926,0,0)"
       x="0"
       y="0" />
    <pattern
       patternUnits="userSpaceOnUse"
       width="349.7577"
       height="27.6099"
       patternTransform="scale(0.2)"
       preserveAspectRatio="xMidYMid"
       id="shading5-6"
       style="fill:#012169"
       inkscape:label="Lines shading big"
       inkscape:collect="always"
       inkscape:isstock="true">
      <path
         id="path37-2"
         style="stroke-width:0.487199;stroke-linecap:square;paint-order:markers fill stroke;stop-color:#000000"
         d="m 349.5257,0 h 0.232 v 27.6099 h -0.232 z m -18.396,0 h 1.0542 v 27.6099 h -1.0542 z m -18.3961,0 h 1.8765 v 27.6099 h -1.8765 z m -18.3961,0 h 2.6988 v 27.6099 h -2.6988 z m -18.3961,0 h 3.5211 v 27.6099 h -3.5211 z m -18.3961,0 h 4.3434 v 27.6099 h -4.3434 z m -18.3961,0 h 5.1658 v 27.6099 h -5.1658 z m -18.3961,0 h 5.9881 v 27.6099 h -5.9881 z M 202.357,0 h 6.8104 v 27.6099 h -6.8104 z m -18.3961,0 h 7.6327 v 27.6099 h -7.6327 z m -18.3961,0 h 8.455 v 27.6099 h -8.455 z m -18.3961,0 h 9.2773 v 27.6099 h -9.2773 z m -18.396,0 h 10.0995 v 27.6099 h -10.0995 z m -18.3961,0 h 10.9218 V 27.6099 H 110.3766 Z M 91.9805,0 h 11.7441 V 27.6099 H 91.9805 Z M 73.5844,0 H 86.1509 V 27.6099 H 73.5844 Z M 55.1883,0 H 68.5771 V 27.6099 H 55.1883 Z M 36.7922,0 H 51.0033 V 27.6099 H 36.7922 Z M 18.3961,0 H 33.4295 V 27.6099 H 18.3961 Z M 0,0 H 15.8557 V 27.6099 H 0 Z"
         sodipodi:nodetypes="cccccccccc" />
    </pattern>
  </defs>
  <g
     id="layer1"
     transform="matrix(1.0465898,0,0,1.10741,-0.82039033,-1.4760285)">
    <rect
       style="display:inline;fill:url(#pattern5);fill-opacity:1;stroke:url(#pattern2);stroke-width:7.9492;stroke-linecap:round;stroke-linejoin:round;stroke-miterlimit:201.6;stroke-dasharray:none;stroke-opacity:1;paint-order:normal"
       id="rect1"
       width="18.586361"
       height="17.125463"
       x="4.7629309"
       y="5.308672" />
    <rect
       style="display:inline;fill:url(#pattern5-7);fill-opacity:1;stroke:url(#pattern2-5);stroke-width:7.9492;stroke-linecap:round;stroke-linejoin:round;stroke-miterlimit:201.6;stroke-dasharray:none;stroke-opacity:1;paint-order:normal"
       id="rect1-1"
       width="18.586361"
       height="17.125463"
       x="4.7648582"
       y="5.3114467" />
    <g
       id="g81"
       transform="translate(-104.40914,-121.87953)"
       style="display:none">
      <path
         style="fill:none;fill-opacity:1;stroke:#ece288;stroke-width:0.9;stroke-dasharray:none;stroke-opacity:0.73"
         d="m 116.85831,132.48786 c 0,0 -0.0427,-0.95625 0.10317,-1.9917 0.24588,-1.74486 1.8638,-2.2325 3.19916,-2.05413 3.6415,0.4864 3.3253,6.02261 3.3253,6.02261 l -0.002,2.80103 c 0,0 -0.16378,5.73222 4.04668,6.16686 3.09331,0.31932 4.86332,-2.79721 5.12114,-4.15461 2.49417,-13.13142 -6.95778,-13.46782 -8.37328,-13.50977 -7.29209,-0.21612 -13.54864,1.15635 -14.27104,6.37741"
         id="path64" />
      <path
         style="display:none;fill:none;fill-opacity:1;stroke:#ece288;stroke-width:0.9;stroke-dasharray:none;stroke-opacity:0.73"
         d="m 116.85894,134.39171 -1.4e-4,-2.03804 c 0,0 0.0285,-3.86365 -3.45056,-3.90442 -3.25094,-0.0381 -3.65032,3.56339 -3.57883,7.25008 0.0716,3.69106 -0.30299,7.58874 4.16877,7.71295"
         id="path65" />
    </g>
    <g
       id="g341"
       transform="translate(-109.43348,-40.020121)"
       style="display:inline;stroke:#010101;stroke-width:0.045;stroke-linecap:butt;stroke-linejoin:bevel;stroke-dasharray:none;stroke-opacity:1;filter:url(#filter138)">
      <path
         id="path339"
         style="color:#000000;fill:#ffffff;stroke:#010101;stroke-width:0.045;stroke-linecap:butt;stroke-linejoin:bevel;stroke-dasharray:none;stroke-opacity:1"
         d="m 121.70922,42.57397 c -1.4406,-0.0013 -2.54746,0.156446 -3.41995,0.562757 -0.87248,0.406309 -1.48288,1.081451 -1.8557,1.972489 -0.39313,0.93959 -0.56488,2.120044 -0.64957,3.592546 -0.39463,1.420281 -0.43921,3.07761 -0.40721,4.727876 0.0352,1.815051 -0.0707,3.754904 0.47077,5.412073 0.27077,0.828584 0.73105,1.600923 1.47278,2.150257 0.74173,0.549333 1.72625,0.851134 2.95331,0.885217 a 0.75,0.75 0 0 0 0.77152,-0.728638 0.75,0.75 0 0 0 -0.72863,-0.769462 c -1.00883,-0.02802 -1.6558,-0.260452 -2.10375,-0.592212 -0.44795,-0.331759 -0.73598,-0.786994 -0.93948,-1.409733 -0.40701,-1.24548 -0.36203,-3.100958 -0.39842,-4.976957 -0.0351,-1.811539 0.0664,-3.571916 0.49816,-4.749581 0.21586,-0.588832 0.50044,-1.018838 0.85524,-1.299146 0.35479,-0.280305 0.793,-0.445082 1.4671,-0.437182 1.46191,0.01713 2.0008,0.721085 2.35334,1.521354 0.35254,0.800268 0.3576,1.628841 0.3576,1.628841 v 0.0021 0.0078 2.032951 a 0.75,0.75 0 0 0 0.74983,0.750341 0.75,0.75 0 0 0 0.75034,-0.750341 v -2.032951 -0.0078 -0.0021 c 0,0 0.005,-0.828573 0.35708,-1.628841 0.35254,-0.800269 0.88988,-1.504739 2.3518,-1.521871 0.67411,-0.0079 1.11178,0.157394 1.46657,0.437699 0.35479,0.280308 0.6399,0.710314 0.85577,1.299146 0.43174,1.177665 0.53277,2.938042 0.49764,4.749581 -0.0364,1.875999 0.0106,3.731477 -0.39636,4.976957 -0.2035,0.622739 -0.49359,1.077974 -0.94154,1.409733 -0.44796,0.33176 -1.09234,0.564191 -2.10117,0.592212 a 0.75,0.75 0 0 0 -0.72863,0.769462 0.75,0.75 0 0 0 0.76946,0.728121 c 1.22706,-0.03408 2.21158,-0.335367 2.95331,-0.8847 0.74173,-0.549334 1.20355,-1.321673 1.47432,-2.150257 0.54154,-1.657169 0.43557,-3.597022 0.47078,-5.412073 0.0364,-1.875139 -0.0268,-3.759547 -0.58963,-5.294767 -0.2814,-0.767609 -0.70211,-1.461657 -1.33429,-1.96112 -0.63219,-0.499465 -1.46244,-0.770793 -2.4138,-0.759644 -1.72339,0.0202 -2.83909,0.93624 -3.44165,1.914612 -0.60299,-0.978372 -1.71982,-1.894415 -3.4432,-1.914612 -0.95136,-0.01115 -1.78215,0.260179 -2.41433,0.759644 -0.11984,0.09468 -0.22976,0.198596 -0.33486,0.306441 0.0804,-0.387131 0.17875,-0.729118 0.30179,-1.023194 0.30598,-0.731294 0.72002,-1.184995 1.40457,-1.503784 0.68454,-0.318788 1.66692,-0.481859 3.03909,-0.480591 4.54968,0.0042 6.55854,0.05186 8.15195,0 0,0 1.07317,-0.03215 2.16008,0.724504 1.08692,0.756658 2.20936,2.289812 2.15852,5.701461 -4e-5,0.0019 -0.0849,4.515629 0.0641,9.45317 0.0231,0.765186 0.0925,2.020488 -0.39016,3.044775 -0.48262,1.024288 -1.44767,1.887683 -3.87521,1.909961 -0.003,1.8e-5 -11.39769,0.06258 -13.09378,0.03359 -1.59386,-0.02724 -2.66012,-0.504347 -3.37705,-1.377177 -0.71693,-0.872831 -1.09947,-2.204382 -1.11518,-3.996139 -0.0257,-2.929002 0,-7.324101 0,-7.324101 a 0.44999999,0.44999999 0 0 0 -0.447,-0.453202 0.44999999,0.44999999 0 0 0 -0.4532,0.447001 c 0,0 -0.0237,4.396108 0.002,7.338054 0.0168,1.914386 0.41842,3.464933 1.31826,4.560445 0.89984,1.095512 2.28214,1.674993 4.0566,1.705322 1.78465,0.03051 13.11496,-0.03307 13.11496,-0.03307 h 0.002 c 2.65689,-0.02438 4.0686,-1.124621 4.68189,-2.426208 0.61327,-1.301588 0.49827,-2.733874 0.47645,-3.456637 -0.14825,-4.911658 -0.0646,-9.410277 -0.0646,-9.410278 v -0.0021 c 0.0539,-3.620002 -1.21395,-5.526534 -2.54455,-6.452836 -1.33061,-0.926302 -2.70113,-0.885218 -2.70113,-0.885218 h -0.002 c -1.55058,0.05046 -3.56739,0.0042 -8.12301,0 z" />
    </g>
    <g
       id="g116"
       transform="translate(-109.43348,-40.020121)"
       style="display:none">
      <path
         style="display:inline;fill:none;fill-opacity:0.231108;stroke:#ffffff;stroke-width:0.9;stroke-linecap:round;stroke-dasharray:none;stroke-opacity:1"
         d="m 111.94231,51.63912 c 0,0 -0.0248,4.39664 9.3e-4,7.33212 0.0325,3.70615 1.56563,5.760982 4.93396,5.818554 1.7405,0.02975 13.10506,-0.03224 13.10506,-0.03224 5.08444,-0.04666 4.7565,-3.931115 4.71159,-5.419067 -0.14866,-4.925119 -0.0636,-9.43326 -0.0636,-9.43326 0.10478,-7.031665 -4.78266,-6.881759 -4.78266,-6.881759 -1.57201,0.05116 -3.58551,0.0043 -8.13817,1.23e-4 -5.62556,-0.0052 -5.47313,2.561328 -5.58282,10.412162"
         id="path115" />
      <path
         id="path116"
         style="color:#000000;display:inline;fill:#ffffff;fill-opacity:1;stroke:none;stroke-width:0.045;stroke-linecap:round;stroke-dasharray:none;stroke-opacity:1"
         d="m 119.71296,45.414107 c -0.95136,-0.01115 -1.78215,0.260179 -2.41433,0.759644 -0.63219,0.499464 -1.05236,1.19351 -1.33377,1.96112 -0.56281,1.535221 -0.62443,3.419626 -0.58807,5.294767 0.0352,1.815052 -0.0707,3.754902 0.47077,5.412073 0.27077,0.828585 0.73105,1.600923 1.47278,2.150257 0.74173,0.549334 1.72625,0.851134 2.95331,0.885217 a 0.75,0.75 0 0 0 0.77152,-0.728638 0.75,0.75 0 0 0 -0.72863,-0.769462 c -1.00883,-0.02802 -1.6558,-0.260452 -2.10375,-0.592212 -0.44795,-0.331759 -0.73598,-0.786993 -0.93948,-1.409733 -0.40701,-1.245481 -0.36203,-3.100956 -0.39842,-4.976957 -0.0351,-1.811541 0.0664,-3.571915 0.49816,-4.749581 0.21586,-0.588833 0.50044,-1.018838 0.85524,-1.299146 0.35479,-0.280306 0.793,-0.445082 1.4671,-0.437182 1.46192,0.01713 2.0008,0.721084 2.35334,1.521354 0.35254,0.800269 0.3576,1.628841 0.3576,1.628841 v 0.0021 c 0,2.28e-4 0,0.0078 0,0.0078 v 2.032951 a 0.75,0.75 0 0 0 0.74983,0.750341 0.75,0.75 0 0 0 0.75034,-0.750341 v -2.032951 c 0,0 0,-0.0075 0,-0.0078 v -0.0021 c 0,0 0.005,-0.828572 0.35708,-1.628841 0.35254,-0.80027 0.88988,-1.504739 2.3518,-1.521871 0.67411,-0.0079 1.11178,0.157393 1.46657,0.437699 0.35479,0.280308 0.6399,0.710313 0.85577,1.299146 0.43174,1.177666 0.53277,2.93804 0.49764,4.749581 -0.0364,1.876001 0.0106,3.731476 -0.39636,4.976957 -0.2035,0.62274 -0.49359,1.077974 -0.94154,1.409733 -0.44796,0.33176 -1.09234,0.564191 -2.10117,0.592212 a 0.75,0.75 0 0 0 -0.72863,0.769462 0.75,0.75 0 0 0 0.76946,0.728121 c 1.22706,-0.03408 2.21158,-0.335366 2.95331,-0.8847 0.74173,-0.549334 1.20355,-1.321672 1.47432,-2.150257 0.54154,-1.657171 0.43557,-3.597021 0.47078,-5.412073 0.0364,-1.875141 -0.0268,-3.759546 -0.58963,-5.294767 -0.2814,-0.76761 -0.70211,-1.461656 -1.33429,-1.96112 -0.63219,-0.499465 -1.46244,-0.770793 -2.4138,-0.759644 -1.72339,0.0202 -2.83909,0.936239 -3.44165,1.914612 -0.60299,-0.978373 -1.71981,-1.894415 -3.4432,-1.914612 z" />
    </g>
  </g>
</svg>
